{"title":"Faster 2010 CAM LKRG","uid":6010235,"size":4362202308,"categoryP":"video","categoryS":"movies","magnet":"?xt=urn:btih:12b8e20dff62205f4e562c46e82473f99f3c6d24&amp;dn=Faster+2010+CAM+LKRG&amp;tr=udp%3A%2F%2Ftracker.openbittorrent.com%3A80&amp;tr=udp%3A%2F%2Fopen.demonii.com%3A1337&amp;tr=udp%3A%2F%2Ftracker.coppersurfer.tk%3A6969&amp;tr=udp%3A%2F%2Fexodus.desync.com%3A6969","seeders":0,"leechers":0,"uploader":"SAFCukO09","files":89,"time":1291440405,"description":"Release Notes: Video;Own\n\n\n\nAudio:OWN Slight flicker and cropping issues not bad for a first cam enjoy\n\n\n\nVideo: ID : 224 (0xE0)\n\nFormat : MPEG Video\n\nFormat version : Version 2\n\nFormat profile : Main@Main\n\nFormat settings, BVOP : Yes\n\nFormat settings, Matrix : Default\n\nDuration : 1h 33mn\n\nBit rate mode : Variable\n\nBit rate : 6 089 Kbps\n\nNominal bit rate : 8 808 Kbps\n\nWidth : 720 pixels\n\nHeight : 480 pixels\n\nDisplay aspect ratio : 4:3\n\nFrame rate : 29.970 fps\n\nStandard : NTSC\n\nColor space : YUV\n\nChroma subsampling : 4:2:0\n\nBit depth : 8 bits\n\nScan type : Progressive\n\nBits/(Pixel*Frame) : 0.588\n\nStream size : 3.99 GiB (95%)\n\n\n\nAudio: ID : 128 (0x80)\n\nFormat : AC-3\n\nFormat/Info : Audio Coding 3\n\nMode extension : CM (complete main)\n\nDuration : 1h 33mn\n\nBit rate mode : Constant\n\nBit rate : 192 Kbps\n\nChannel(s) : 2 channels\n\nChannel positions : Front: L R\n\nSampling rate : 48.0 KHz\n\nBit depth : 16 bits\n\nStream size : 129 MiB (3%)\n\n\n\nDuration:1:34","torrent":{"xt":"urn:btih:12b8e20dff62205f4e562c46e82473f99f3c6d24","amp;dn":"Faster+2010+CAM+LKRG","amp;tr":["udp%3A%2F%2Ftracker.openbittorrent.com%3A80","udp%3A%2F%2Fopen.demonii.com%3A1337","udp%3A%2F%2Ftracker.coppersurfer.tk%3A6969","udp%3A%2F%2Fexodus.desync.com%3A6969"],"infoHash":"12b8e20dff62205f4e562c46e82473f99f3c6d24","infoHashBuffer":{"type":"Buffer","data":[18,184,226,13,255,98,32,95,78,86,44,70,232,36,115,249,159,60,109,36]},"announce":[],"urlList":[]}}